# xmcd CD database file
#
# Track frame offsets:
#	150
#	18767
#	38960
#	53804
#	76275
#	93785
#	111521
#	130439
#	143580
#	169746
#
# Disc length: 2470 seconds
#
# Revision: 0
# Processed by: cddbd v1.5.2PL0 Copyright (c) Steve Scherf et al.
# Submitted via: CDex 1.97
#
DISCID=7b09a40a
DTITLE=James Crutchfield - St. Louis Blues Piano -  Swingmaster CD 2205
DYEAR=1900
DGENRE=Blues
TTITLE0=Piggly Wiggly Blues
TTITLE1=Pearly Mae
TTITLE2=I Believe You Need A Shot
TTITLE3=Forty-Four Blues
TTITLE4=Bogalusa Blues
TTITLE5=My Baby Cooks My Breakfast
TTITLE6=Black Woman
TTITLE7=U.S.-RussianBlues
TTITLE8=Barrelhouse Blues
TTITLE9=My Little Lucille
EXTD=
EXTT0=
EXTT1=
EXTT2=
EXTT3=
EXTT4=
EXTT5=
EXTT6=
EXTT7=
EXTT8=
EXTT9=
PLAYORDER=
